<?xml version="1.0" encoding="utf-8"?>
<!-- Generator: Adobe Illustrator 24.1.0, SVG Export Plug-In . SVG Version: 6.00 Build 0)  -->
<svg version="1.1" id="Capa_1" xmlns="http://www.w3.org/2000/svg" xmlns:xlink="http://www.w3.org/1999/xlink" x="0px" y="0px"
	 viewBox="0 0 1024 1024" style="enable-background:new 0 0 1024 1024;" xml:space="preserve">
<style type="text/css">
	.st0{fill:#FFFFFF;}
	.st1{fill:url(#SVGID_1_);}
</style>
<g>
	<path class="st0" d="M651,961H377C212,961,77,826,77,661V387C77,222,212,87,377,87h274c165,0,300,135,300,300v274
		C951,826,816,961,651,961z"/>
</g>
<g>
	
		<linearGradient id="SVGID_1_" gradientUnits="userSpaceOnUse" x1="233.4" y1="1575.1014" x2="718.0936" y2="1575.1014" gradientTransform="matrix(1 0 0 -1 39.27 2125)">
		<stop  offset="0" style="stop-color:#29B6F6"/>
		<stop  offset="1" style="stop-color:#A7F52B"/>
	</linearGradient>
	<path class="st1" d="M707.1,800.6c16.7,42.3-4,90.1-46.3,106.8L574,687.8c-17.4,3.8-35.1,5.7-52.9,5.7
		c-138.4,0-250.6-112.2-250.6-250.6s112.2-250.6,250.6-250.6c31.6,0,63,5.9,92.4,17.6l-30.2,76.6c-19.8-7.9-40.9-11.9-62.1-11.9
		c-92.9,0-168.2,75.4-168.2,168.2s75.3,168.2,168.2,168.2c71.1,0,131.9-44.1,156.5-106.5l76.6,30.4c-20.3,51-56.7,94-103.7,122.4
		L707.1,800.6z"/>
</g>
</svg>
